<?xml version="1.0" encoding="UTF-8" standalone="no"?>
<!DOCTYPE svg PUBLIC "-//W3C//DTD SVG 1.1//EN"
 "http://www.w3.org/Graphics/SVG/1.1/DTD/svg11.dtd">
<!-- Generated by graphviz version 2.40.1 (20161225.0304)
 -->
<!-- Title: %3 Pages: 1 -->
<svg width="325pt" height="236pt"
 viewBox="0.00 0.00 325.23 236.30" xmlns="http://www.w3.org/2000/svg" xmlns:xlink="http://www.w3.org/1999/xlink">
<g id="graph0" class="graph" transform="scale(1 1) rotate(0) translate(4 232.2963)">
<title>%3</title>
<polygon fill="#ffffff" stroke="transparent" points="-4,4 -4,-232.2963 321.2254,-232.2963 321.2254,4 -4,4"/>
<!-- 是蓝色或者红色吗？ -->
<g id="node1" class="node">
<title>是蓝色或者红色吗？</title>
<ellipse fill="none" stroke="#000000" cx="150.1127" cy="-208.7803" rx="100.3184" ry="19.5322"/>
<text text-anchor="middle" x="150.1127" y="-207.3802" font-family="Times,serif" font-size="14.00" fill="#000000">是蓝色或者红色吗？</text>
</g>
<!-- 是蓝色吗？ -->
<g id="node2" class="node">
<title>是蓝色吗？</title>
<ellipse fill="none" stroke="#000000" cx="81.1127" cy="-114.1482" rx="60.623" ry="19.5322"/>
<text text-anchor="middle" x="81.1127" y="-112.7481" font-family="Times,serif" font-size="14.00" fill="#000000">是蓝色吗？</text>
</g>
<!-- 是蓝色或者红色吗？&#45;&gt;是蓝色吗？ -->
<g id="edge1" class="edge">
<title>是蓝色或者红色吗？&#45;&gt;是蓝色吗？</title>
<path fill="none" stroke="#000000" d="M135.8159,-189.1724C125.8506,-175.5053 112.4131,-157.076 101.3502,-141.9035"/>
<polygon fill="#000000" stroke="#000000" points="103.8748,-139.4252 95.1551,-133.4071 98.2187,-143.5494 103.8748,-139.4252"/>
<text text-anchor="middle" x="129.1127" y="-160.0642" font-family="Times,serif" font-size="14.00" fill="#000000">是</text>
</g>
<!-- 是绿色吗？ -->
<g id="node7" class="node">
<title>是绿色吗？</title>
<ellipse fill="none" stroke="#000000" cx="221.1127" cy="-114.1482" rx="60.623" ry="19.5322"/>
<text text-anchor="middle" x="221.1127" y="-112.7481" font-family="Times,serif" font-size="14.00" fill="#000000">是绿色吗？</text>
</g>
<!-- 是蓝色或者红色吗？&#45;&gt;是绿色吗？ -->
<g id="edge4" class="edge">
<title>是蓝色或者红色吗？&#45;&gt;是绿色吗？</title>
<path fill="none" stroke="#000000" d="M164.8239,-189.1724C175.1739,-175.3776 189.1638,-156.7311 200.6071,-141.4789"/>
<polygon fill="#000000" stroke="#000000" points="203.4614,-143.5066 206.6632,-133.4071 197.8621,-139.3056 203.4614,-143.5066"/>
<text text-anchor="middle" x="206.1127" y="-160.0642" font-family="Times,serif" font-size="14.00" fill="#000000">不是</text>
</g>
<!-- 蓝色 -->
<g id="node3" class="node">
<title>蓝色</title>
<ellipse fill="none" stroke="#0000ff" cx="31.1127" cy="-19.5161" rx="31.2258" ry="19.5322"/>
<text text-anchor="middle" x="31.1127" y="-18.116" font-family="Times,serif" font-size="14.00" fill="#000000">蓝色</text>
</g>
<!-- 是蓝色吗？&#45;&gt;蓝色 -->
<g id="edge2" class="edge">
<title>是蓝色吗？&#45;&gt;蓝色</title>
<path fill="none" stroke="#000000" d="M70.7527,-94.5403C63.5042,-80.8216 53.7206,-62.3047 45.6868,-47.0997"/>
<polygon fill="#000000" stroke="#000000" points="48.7154,-45.3396 40.9491,-38.1329 42.5262,-48.6097 48.7154,-45.3396"/>
<text text-anchor="middle" x="68.1127" y="-65.4321" font-family="Times,serif" font-size="14.00" fill="#000000">是</text>
</g>
<!-- 红色 -->
<g id="node4" class="node">
<title>红色</title>
<ellipse fill="none" stroke="#ff0000" cx="111.1127" cy="-19.5161" rx="31.2258" ry="19.5322"/>
<text text-anchor="middle" x="111.1127" y="-18.116" font-family="Times,serif" font-size="14.00" fill="#000000">红色</text>
</g>
<!-- 是蓝色吗？&#45;&gt;红色 -->
<g id="edge3" class="edge">
<title>是蓝色吗？&#45;&gt;红色</title>
<path fill="none" stroke="#000000" d="M87.3287,-94.5403C91.54,-81.2564 97.1774,-63.4736 101.9068,-48.5551"/>
<polygon fill="#000000" stroke="#000000" points="105.3216,-49.3652 105.0073,-38.775 98.6489,-47.2498 105.3216,-49.3652"/>
<text text-anchor="middle" x="113.1127" y="-65.4321" font-family="Times,serif" font-size="14.00" fill="#000000">不是</text>
</g>
<!-- 绿色 -->
<g id="node5" class="node">
<title>绿色</title>
<ellipse fill="none" stroke="#00ff00" cx="206.1127" cy="-19.5161" rx="31.2258" ry="19.5322"/>
<text text-anchor="middle" x="206.1127" y="-18.116" font-family="Times,serif" font-size="14.00" fill="#000000">绿色</text>
</g>
<!-- 橘色 -->
<g id="node6" class="node">
<title>橘色</title>
<ellipse fill="none" stroke="#ffa500" cx="286.1127" cy="-19.5161" rx="31.2258" ry="19.5322"/>
<text text-anchor="middle" x="286.1127" y="-18.116" font-family="Times,serif" font-size="14.00" fill="#000000">橘色</text>
</g>
<!-- 是绿色吗？&#45;&gt;绿色 -->
<g id="edge5" class="edge">
<title>是绿色吗？&#45;&gt;绿色</title>
<path fill="none" stroke="#000000" d="M218.0047,-94.5403C215.9331,-81.4713 213.1713,-64.0477 210.8307,-49.2812"/>
<polygon fill="#000000" stroke="#000000" points="214.2392,-48.4275 209.2167,-39.0988 207.3255,-49.5235 214.2392,-48.4275"/>
<text text-anchor="middle" x="222.1127" y="-65.4321" font-family="Times,serif" font-size="14.00" fill="#000000">是</text>
</g>
<!-- 是绿色吗？&#45;&gt;橘色 -->
<g id="edge6" class="edge">
<title>是绿色吗？&#45;&gt;橘色</title>
<path fill="none" stroke="#000000" d="M234.2664,-94.998C243.8795,-81.0025 257.0431,-61.8378 267.7006,-46.3219"/>
<polygon fill="#000000" stroke="#000000" points="270.8633,-47.8991 273.6401,-37.6746 265.0933,-43.9358 270.8633,-47.8991"/>
<text text-anchor="middle" x="273.1127" y="-65.4321" font-family="Times,serif" font-size="14.00" fill="#000000">不是</text>
</g>
</g>
</svg>
