<?xml version="1.0" encoding="UTF-8" standalone="no"?>
<!DOCTYPE svg PUBLIC "-//W3C//DTD SVG 1.1//EN"
 "http://www.w3.org/Graphics/SVG/1.1/DTD/svg11.dtd">
<!-- Generated by graphviz version 2.40.1 (20161225.0304)
 -->
<!-- Title: %3 Pages: 1 -->
<svg width="305pt" height="331pt"
 viewBox="0.00 0.00 304.92 330.93" xmlns="http://www.w3.org/2000/svg" xmlns:xlink="http://www.w3.org/1999/xlink">
<g id="graph0" class="graph" transform="scale(1 1) rotate(0) translate(4 326.9284)">
<title>%3</title>
<polygon fill="#ffffff" stroke="transparent" points="-4,4 -4,-326.9284 300.9239,-326.9284 300.9239,4 -4,4"/>
<!-- 蓝色 -->
<g id="node1" class="node">
<title>蓝色</title>
<ellipse fill="none" stroke="#0000ff" cx="42.8112" cy="-208.7803" rx="31.2258" ry="19.5322"/>
<text text-anchor="middle" x="42.8112" y="-207.3802" font-family="Times,serif" font-size="14.00" fill="#000000">蓝色</text>
</g>
<!-- 红色 -->
<g id="node2" class="node">
<title>红色</title>
<ellipse fill="none" stroke="#ff0000" cx="115.8112" cy="-114.1482" rx="31.2258" ry="19.5322"/>
<text text-anchor="middle" x="115.8112" y="-112.7481" font-family="Times,serif" font-size="14.00" fill="#000000">红色</text>
</g>
<!-- 绿色 -->
<g id="node3" class="node">
<title>绿色</title>
<ellipse fill="none" stroke="#00ff00" cx="185.8112" cy="-19.5161" rx="31.2258" ry="19.5322"/>
<text text-anchor="middle" x="185.8112" y="-18.116" font-family="Times,serif" font-size="14.00" fill="#000000">绿色</text>
</g>
<!-- 橘色 -->
<g id="node4" class="node">
<title>橘色</title>
<ellipse fill="none" stroke="#ffa500" cx="265.8112" cy="-19.5161" rx="31.2258" ry="19.5322"/>
<text text-anchor="middle" x="265.8112" y="-18.116" font-family="Times,serif" font-size="14.00" fill="#000000">橘色</text>
</g>
<!-- 是蓝色吗？ -->
<g id="node5" class="node">
<title>是蓝色吗？</title>
<ellipse fill="none" stroke="#000000" cx="60.8112" cy="-303.4124" rx="60.623" ry="19.5322"/>
<text text-anchor="middle" x="60.8112" y="-302.0123" font-family="Times,serif" font-size="14.00" fill="#000000">是蓝色吗？</text>
</g>
<!-- 是蓝色吗？&#45;&gt;蓝色 -->
<g id="edge1" class="edge">
<title>是蓝色吗？&#45;&gt;蓝色</title>
<path fill="none" stroke="#000000" d="M57.0816,-283.8045C54.5957,-270.7354 51.2815,-253.3118 48.4728,-238.5454"/>
<polygon fill="#000000" stroke="#000000" points="51.843,-237.5328 46.536,-228.363 44.9663,-238.8409 51.843,-237.5328"/>
<text text-anchor="middle" x="60.8112" y="-254.6963" font-family="Times,serif" font-size="14.00" fill="#000000">是</text>
</g>
<!-- 是红色吗？ -->
<g id="node6" class="node">
<title>是红色吗？</title>
<ellipse fill="none" stroke="#000000" cx="152.8112" cy="-208.7803" rx="60.623" ry="19.5322"/>
<text text-anchor="middle" x="152.8112" y="-207.3802" font-family="Times,serif" font-size="14.00" fill="#000000">是红色吗？</text>
</g>
<!-- 是蓝色吗？&#45;&gt;是红色吗？ -->
<g id="edge2" class="edge">
<title>是蓝色吗？&#45;&gt;是红色吗？</title>
<path fill="none" stroke="#000000" d="M78.9874,-284.7161C92.8482,-270.4588 112.1076,-250.6484 127.4795,-234.8367"/>
<polygon fill="#000000" stroke="#000000" points="130.2116,-237.0475 134.6727,-227.4377 125.1925,-232.168 130.2116,-237.0475"/>
<text text-anchor="middle" x="129.8112" y="-254.6963" font-family="Times,serif" font-size="14.00" fill="#000000">不是</text>
</g>
<!-- 是红色吗？&#45;&gt;红色 -->
<g id="edge3" class="edge">
<title>是红色吗？&#45;&gt;红色</title>
<path fill="none" stroke="#000000" d="M145.1448,-189.1724C139.901,-175.7608 132.8642,-157.7633 126.9971,-142.7576"/>
<polygon fill="#000000" stroke="#000000" points="130.2424,-141.446 123.3412,-133.4071 123.723,-143.9951 130.2424,-141.446"/>
<text text-anchor="middle" x="144.8112" y="-160.0642" font-family="Times,serif" font-size="14.00" fill="#000000">是</text>
</g>
<!-- 是绿色吗？ -->
<g id="node7" class="node">
<title>是绿色吗？</title>
<ellipse fill="none" stroke="#000000" cx="225.8112" cy="-114.1482" rx="60.623" ry="19.5322"/>
<text text-anchor="middle" x="225.8112" y="-112.7481" font-family="Times,serif" font-size="14.00" fill="#000000">是绿色吗？</text>
</g>
<!-- 是红色吗？&#45;&gt;是绿色吗？ -->
<g id="edge4" class="edge">
<title>是红色吗？&#45;&gt;是绿色吗？</title>
<path fill="none" stroke="#000000" d="M167.5838,-189.63C178.2701,-175.7772 192.8629,-156.86 204.7662,-141.4294"/>
<polygon fill="#000000" stroke="#000000" points="207.7238,-143.3256 211.0605,-133.2699 202.1813,-139.05 207.7238,-143.3256"/>
<text text-anchor="middle" x="210.8112" y="-160.0642" font-family="Times,serif" font-size="14.00" fill="#000000">不是</text>
</g>
<!-- 是绿色吗？&#45;&gt;绿色 -->
<g id="edge5" class="edge">
<title>是绿色吗？&#45;&gt;绿色</title>
<path fill="none" stroke="#000000" d="M217.5232,-94.5403C211.8166,-81.0398 204.146,-62.8926 197.7783,-47.8278"/>
<polygon fill="#000000" stroke="#000000" points="200.9329,-46.3013 193.8156,-38.453 194.4852,-49.0267 200.9329,-46.3013"/>
<text text-anchor="middle" x="216.8112" y="-65.4321" font-family="Times,serif" font-size="14.00" fill="#000000">是</text>
</g>
<!-- 是绿色吗？&#45;&gt;橘色 -->
<g id="edge6" class="edge">
<title>是绿色吗？&#45;&gt;橘色</title>
<path fill="none" stroke="#000000" d="M234.0992,-94.5403C239.8057,-81.0398 247.4764,-62.8926 253.8441,-47.8278"/>
<polygon fill="#000000" stroke="#000000" points="257.1371,-49.0267 257.8067,-38.453 250.6895,-46.3013 257.1371,-49.0267"/>
<text text-anchor="middle" x="262.8112" y="-65.4321" font-family="Times,serif" font-size="14.00" fill="#000000">不是</text>
</g>
</g>
</svg>
