<?xml version="1.0" encoding="UTF-8" standalone="no"?>
<!DOCTYPE svg PUBLIC "-//W3C//DTD SVG 1.1//EN"
 "http://www.w3.org/Graphics/SVG/1.1/DTD/svg11.dtd">
<!-- Generated by graphviz version 2.40.1 (20161225.0304)
 -->
<!-- Title: %3 Pages: 1 -->
<svg width="638pt" height="136pt"
 viewBox="0.00 0.00 638.10 135.60" xmlns="http://www.w3.org/2000/svg" xmlns:xlink="http://www.w3.org/1999/xlink">
<g id="graph0" class="graph" transform="scale(1 1) rotate(0) translate(4 131.5999)">
<title>%3</title>
<polygon fill="#ffffff" stroke="transparent" points="-4,4 -4,-131.5999 634.0967,-131.5999 634.0967,4 -4,4"/>
<!-- vector -->
<g id="node1" class="node">
<title>vector</title>
<polygon fill="none" stroke="#000000" points="358.0483,-127.5999 279.0483,-127.5999 279.0483,-91.5999 358.0483,-91.5999 358.0483,-127.5999"/>
<text text-anchor="middle" x="318.5483" y="-108.1999" font-family="Times,serif" font-size="14.00" fill="#000000">256维向量</text>
</g>
<!-- classify -->
<g id="node2" class="node">
<title>classify</title>
<polygon fill="none" stroke="#000000" points="313.145,-36 -.0484,-36 -.0484,0 313.145,0 313.145,-36"/>
<text text-anchor="middle" x="156.5483" y="-16.6" font-family="Times,serif" font-size="14.00" fill="#000000">2K个输出节点，判断每个Anchor是目标还是背景</text>
</g>
<!-- vector&#45;&gt;classify -->
<g id="edge1" class="edge">
<title>vector&#45;&gt;classify</title>
<path fill="none" stroke="#000000" d="M286.5424,-91.5027C261.026,-77.075 225.1193,-56.7722 197.507,-41.1593"/>
<polygon fill="#000000" stroke="#000000" points="198.9154,-37.9349 188.4878,-36.0596 195.47,-44.0283 198.9154,-37.9349"/>
<text text-anchor="middle" x="273.5483" y="-62.3999" font-family="Times,serif" font-size="14.00" fill="#000000">全连接</text>
</g>
<!-- regress -->
<g id="node3" class="node">
<title>regress</title>
<polygon fill="none" stroke="#000000" points="630.145,-36 330.9516,-36 330.9516,0 630.145,0 630.145,-36"/>
<text text-anchor="middle" x="480.5483" y="-16.6" font-family="Times,serif" font-size="14.00" fill="#000000">4K个输出节点，学习出每个Anchor要如何调整</text>
</g>
<!-- vector&#45;&gt;regress -->
<g id="edge2" class="edge">
<title>vector&#45;&gt;regress</title>
<path fill="none" stroke="#000000" d="M350.5543,-91.5027C376.0707,-77.075 411.9773,-56.7722 439.5896,-41.1593"/>
<polygon fill="#000000" stroke="#000000" points="441.6267,-44.0283 448.6088,-36.0596 438.1813,-37.9349 441.6267,-44.0283"/>
<text text-anchor="middle" x="435.5483" y="-62.3999" font-family="Times,serif" font-size="14.00" fill="#000000">全连接</text>
</g>
</g>
</svg>
